<?xml version="1.0" encoding="UTF-8" standalone="no" ?>
<!DOCTYPE svg PUBLIC "-//W3C//DTD SVG 1.1//EN" "http://www.w3.org/Graphics/SVG/1.1/DTD/svg11.dtd">
<svg xmlns="http://www.w3.org/2000/svg" xmlns:xlink="http://www.w3.org/1999/xlink" version="1.1" width="500" height="500" viewBox="0 0 500 500" xml:space="preserve">
<desc>Created with Fabric.js 3.6.3</desc>
<defs>
</defs>
<g transform="matrix(1 0 0 1 50.212466476991295 243.74419230769232)" style=""  ><path fill="#ffffff" opacity="1" d="M-10.56-0.90L-3.15-0.90L-3.15 12.45Q-6.07 13.07-9.16 13.42Q-12.25 13.77-15.42 13.77L-15.42 13.77L-16.91 13.77Q-21.65 13.77-24.76 12.70Q-27.87 11.62-29.72 9.79Q-31.58 7.96-32.32 5.49Q-33.06 3.01-33.06 0.21L-33.06 0.21L-33.06-1.93Q-33.06-4.73-32.32-7.20Q-31.58-9.68-29.72-11.51Q-27.87-13.34-24.76-14.41Q-21.65-15.49-16.91-15.49L-16.91-15.49L-15.42-15.49Q-12.46-15.49-9.57-15.14Q-6.69-14.79-3.97-14.13L-3.97-14.13L-3.97-7.41Q-7.02-8.23-10.17-8.58Q-13.32-8.93-15.63-8.93L-15.63-8.93Q-19.34-8.93-21.34-8.34Q-23.34-7.74-24.26-6.67Q-25.19-5.60-25.33-4.11Q-25.48-2.63-25.48-0.86L-25.48-0.86Q-25.48 0.91-25.33 2.40Q-25.19 3.88-24.26 4.97Q-23.34 6.06-21.34 6.66Q-19.34 7.26-15.63 7.26L-15.63 7.26Q-13.41 7.26-10.56 7.01L-10.56 7.01L-10.56-0.90Z"/><path fill="#ffffff" opacity="1" d="M2.41-17.96L4.06-17.96L9.01-15.07L9.01-7.53Q10.45-7.99 12.01-8.23Q13.58-8.48 15.43-8.48L15.43-8.48Q18.89-8.48 21.16-7.68Q23.43-6.87 24.79-5.47Q26.15-4.07 26.68-2.20Q27.22-0.32 27.22 1.82L27.22 1.82L27.22 12.94L20.63 12.94L20.63 2.64Q20.63 1.65 20.54 0.71Q20.46-0.24 19.92-0.94Q19.39-1.64 18.28-2.07Q17.16-2.51 15.06-2.51L15.06-2.51Q13.33-2.51 11.85-2.28Q10.37-2.05 9.01-1.60L9.01-1.60L9.01 12.94L2.41 12.94L2.41-17.96Z"/><path fill="#ffffff" opacity="1" d="M56.96 0.58L56.96 12.94L55.32 12.94L53.09 11.67Q50.99 12.74 48.72 13.25Q46.46 13.77 43.61 13.77L43.61 13.77Q40.28 13.77 38.07 13.21Q35.87 12.65 34.55 11.69Q33.23 10.72 32.70 9.46Q32.16 8.20 32.16 6.84L32.16 6.84L32.16 6.43Q32.16 5.16 32.72 4.00Q33.27 2.85 34.61 1.98Q35.95 1.12 38.11 0.62Q40.28 0.13 43.49 0.13L43.49 0.13Q47.53 0.13 50.37 0.91L50.37 0.91Q50.33 0.09 50.15-0.55Q49.96-1.19 49.34-1.62Q48.72-2.05 47.51-2.28Q46.29-2.51 44.27-2.51L44.27-2.51Q43.16-2.51 41.88-2.43Q40.61-2.34 39.31-2.20Q38.01-2.05 36.76-1.81Q35.50-1.56 34.43-1.27L34.43-1.27L34.43-7.45Q35.50-7.70 36.76-7.88Q38.01-8.07 39.35-8.21Q40.69-8.36 41.99-8.42Q43.29-8.48 44.48-8.48L44.48-8.48Q47.94-8.48 50.31-7.88Q52.68-7.29 54.16-6.15Q55.65-5.02 56.30-3.33Q56.96-1.64 56.96 0.58L56.96 0.58ZM44.32 8.62L44.32 8.62Q47.57 8.62 50.37 7.75L50.37 7.75L50.37 5.81Q48.97 5.44 47.41 5.26Q45.84 5.07 43.90 5.07L43.90 5.07Q42.05 5.07 41.02 5.24Q39.99 5.40 39.49 5.67Q39.00 5.94 38.88 6.27Q38.75 6.60 38.75 6.89L38.75 6.89Q38.75 7.26 38.88 7.57Q39.00 7.87 39.56 8.12Q40.11 8.37 41.23 8.49Q42.34 8.62 44.32 8.62Z"/><path fill="#ffffff" opacity="1" d="M78.39-8.19L78.39-1.97Q76.49-2.30 74.56-2.30L74.56-2.30Q71.22-2.30 68.50-1.44L68.50-1.44L68.50 12.94L61.91 12.94L61.91-7.66L63.56-7.66L65.78-6.34Q67.76-7.41 69.98-7.95Q72.21-8.48 74.93-8.48L74.93-8.48Q75.87-8.48 76.74-8.40Q77.60-8.32 78.39-8.19L78.39-8.19Z"/><path fill="#ffffff" opacity="1" d="M106.86 12.94L100.51 12.94L95.90 5.69L89.31 5.69L89.31 12.94L82.71 12.94L82.71-17.96L84.36-17.96L89.31-15.07L89.31-0.41L95.90-0.41L100.51-7.66L106.86-7.66L106.86-6.01L101.38 2.64L106.86 11.29L106.86 12.94Z"/><path fill="#ffffff" opacity="1" d="M135.20 0.58L135.20 12.94L133.55 12.94L131.33 11.67Q129.23 12.74 126.96 13.25Q124.70 13.77 121.85 13.77L121.85 13.77Q118.52 13.77 116.31 13.21Q114.11 12.65 112.79 11.69Q111.47 10.72 110.94 9.46Q110.40 8.20 110.40 6.84L110.40 6.84L110.40 6.43Q110.40 5.16 110.96 4.00Q111.51 2.85 112.85 1.98Q114.19 1.12 116.35 0.62Q118.52 0.13 121.73 0.13L121.73 0.13Q125.77 0.13 128.61 0.91L128.61 0.91Q128.57 0.09 128.38-0.55Q128.20-1.19 127.58-1.62Q126.96-2.05 125.75-2.28Q124.53-2.51 122.51-2.51L122.51-2.51Q121.40-2.51 120.12-2.43Q118.85-2.34 117.55-2.20Q116.25-2.05 114.99-1.81Q113.74-1.56 112.67-1.27L112.67-1.27L112.67-7.45Q113.74-7.70 114.99-7.88Q116.25-8.07 117.59-8.21Q118.93-8.36 120.23-8.42Q121.52-8.48 122.72-8.48L122.72-8.48Q126.18-8.48 128.55-7.88Q130.92-7.29 132.40-6.15Q133.88-5.02 134.54-3.33Q135.20-1.64 135.20 0.58L135.20 0.58ZM122.55 8.62L122.55 8.62Q125.81 8.62 128.61 7.75L128.61 7.75L128.61 5.81Q127.21 5.44 125.64 5.26Q124.08 5.07 122.14 5.07L122.14 5.07Q120.29 5.07 119.26 5.24Q118.23 5.40 117.73 5.67Q117.24 5.94 117.12 6.27Q116.99 6.60 116.99 6.89L116.99 6.89Q116.99 7.26 117.12 7.57Q117.24 7.87 117.80 8.12Q118.35 8.37 119.46 8.49Q120.58 8.62 122.55 8.62Z"/><path fill="#ffffff" opacity="1" d="M151.64 8.20L151.64 8.20Q153.21 8.20 154.11 8.08Q155.02 7.96 155.47 7.77Q155.93 7.59 156.05 7.36Q156.17 7.13 156.17 6.89L156.17 6.89Q156.17 5.94 155.04 5.73Q153.91 5.53 151.44 5.44L151.44 5.44Q150.61 5.44 149.48 5.36Q148.35 5.28 147.13 5.07Q145.91 4.87 144.72 4.46Q143.52 4.04 142.60 3.30Q141.67 2.56 141.09 1.45Q140.52 0.34 140.52-1.27L140.52-1.27L140.52-1.68Q140.52-3.04 141.03-4.26Q141.55-5.47 142.82-6.42Q144.10-7.37 146.22-7.93Q148.35-8.48 151.56-8.48L151.56-8.48L152.71-8.48Q155.06-8.48 157.29-8.21Q159.51-7.95 161.61-7.45L161.61-7.45L161.61-1.72Q159.14-2.30 156.71-2.61Q154.28-2.92 151.68-2.92L151.68-2.92Q150.08-2.92 149.17-2.80Q148.26-2.67 147.81-2.47Q147.36-2.26 147.23-2.03Q147.11-1.81 147.11-1.56L147.11-1.56Q147.11-0.69 148.22-0.47Q149.33-0.24 151.85-0.16L151.85-0.16Q152.63-0.12 153.76-0.08Q154.90-0.04 156.11 0.19Q157.33 0.42 158.52 0.83Q159.72 1.24 160.66 1.98Q161.61 2.72 162.19 3.84Q162.77 4.95 162.77 6.56L162.77 6.56L162.77 6.97Q162.77 8.33 162.25 9.54Q161.74 10.76 160.46 11.71Q159.18 12.65 157.06 13.21Q154.94 13.77 151.72 13.77L151.72 13.77L150.57 13.77Q147.89 13.77 145.38 13.50Q142.87 13.23 140.43 12.74L140.43 12.74L140.43 7.01Q143.15 7.59 146.06 7.90Q148.96 8.20 151.64 8.20Z"/><path fill="#ffffff" opacity="1" d="M192.39 0.58L192.39 12.94L190.74 12.94L188.52 11.67Q186.41 12.74 184.15 13.25Q181.88 13.77 179.04 13.77L179.04 13.77Q175.70 13.77 173.50 13.21Q171.29 12.65 169.98 11.69Q168.66 10.72 168.12 9.46Q167.59 8.20 167.59 6.84L167.59 6.84L167.59 6.43Q167.59 5.16 168.14 4.00Q168.70 2.85 170.04 1.98Q171.38 1.12 173.54 0.62Q175.70 0.13 178.92 0.13L178.92 0.13Q182.95 0.13 185.80 0.91L185.80 0.91Q185.75 0.09 185.57-0.55Q185.38-1.19 184.77-1.62Q184.15-2.05 182.93-2.28Q181.72-2.51 179.70-2.51L179.70-2.51Q178.59-2.51 177.31-2.43Q176.03-2.34 174.73-2.20Q173.44-2.05 172.18-1.81Q170.92-1.56 169.85-1.27L169.85-1.27L169.85-7.45Q170.92-7.70 172.18-7.88Q173.44-8.07 174.78-8.21Q176.11-8.36 177.41-8.42Q178.71-8.48 179.90-8.48L179.90-8.48Q183.37-8.48 185.73-7.88Q188.10-7.29 189.59-6.15Q191.07-5.02 191.73-3.33Q192.39-1.64 192.39 0.58L192.39 0.58ZM179.74 8.62L179.74 8.62Q182.99 8.62 185.80 7.75L185.80 7.75L185.80 5.81Q184.40 5.44 182.83 5.26Q181.26 5.07 179.33 5.07L179.33 5.07Q177.47 5.07 176.44 5.24Q175.41 5.40 174.92 5.67Q174.42 5.94 174.30 6.27Q174.18 6.60 174.18 6.89L174.18 6.89Q174.18 7.26 174.30 7.57Q174.42 7.87 174.98 8.12Q175.54 8.37 176.65 8.49Q177.76 8.62 179.74 8.62Z"/><path fill="#ffffff" opacity="1" d="M204.54-13.01L204.54-7.66L210.89-7.66L210.89-1.89L204.54-1.89L204.54 4.70Q204.54 5.40 204.62 5.94Q204.71 6.47 205.08 6.84Q205.45 7.22 206.23 7.40Q207.01 7.59 208.41 7.59L208.41 7.59Q209.36 7.59 210.39 7.48Q211.42 7.38 212.25 7.13L212.25 7.13L212.25 13.15Q211.42 13.35 210.35 13.46Q209.28 13.56 208.13 13.56L208.13 13.56Q205.32 13.56 203.39 13.02Q201.45 12.49 200.26 11.48Q199.06 10.47 198.51 8.97Q197.95 7.46 197.95 5.53L197.95 5.53L197.95-15.90L199.60-15.90L204.54-13.01Z"/><path fill="#ffffff" opacity="1" d="M216.98-17.96L218.63-17.96L223.58-15.07L223.58-7.53Q225.02-7.99 226.58-8.23Q228.15-8.48 230.00-8.48L230.00-8.48Q233.46-8.48 235.73-7.68Q238.00-6.87 239.36-5.47Q240.72-4.07 241.25-2.20Q241.79-0.32 241.79 1.82L241.79 1.82L241.79 12.94L235.19 12.94L235.19 2.64Q235.19 1.65 235.11 0.71Q235.03-0.24 234.49-0.94Q233.96-1.64 232.85-2.07Q231.73-2.51 229.63-2.51L229.63-2.51Q227.90-2.51 226.42-2.28Q224.94-2.05 223.58-1.60L223.58-1.60L223.58 12.94L216.98 12.94L216.98-17.96Z"/><path fill="#ffffff" opacity="1" d="M248.79-7.66L247.14-7.66L247.14 12.94L253.73 12.94L253.73-4.77L248.79-7.66ZM246.73-14.37L246.73-14.87Q246.73-16.14 247.47-17.05Q248.21-17.96 250.27-17.96L250.27-17.96L250.60-17.96Q252.66-17.96 253.41-17.05Q254.15-16.14 254.15-14.87L254.15-14.87L254.15-14.37Q254.15-13.10 253.41-12.19Q252.66-11.28 250.60-11.28L250.60-11.28L250.27-11.28Q248.21-11.28 247.47-12.19Q246.73-13.10 246.73-14.37L246.73-14.37Z"/><path fill="#ffffff" opacity="1" d=""/></g><g transform="matrix(1.971762783960523 0 0 1.971762783960523 383.47119222367587 250)"  >
<path style="stroke: none; stroke-width: 0; stroke-dasharray: none; stroke-linecap: butt; stroke-dashoffset: 0; stroke-linejoin: miter; stroke-miterlimit: 4; fill: rgb(255,255,255); fill-rule: nonzero; opacity: 1;"  transform=" translate(-31.999999999999996, -32)" d="M 54 64 a 0.99974 0.99974 0 0 0 1 -1 V 58 a 0.99974 0.99974 0 0 0 -1 -1 H 51 V 54.65723 a 2.98161 2.98161 0 0 1 0.87842 -2.12207 l 8.77832 -8.77832 A 7.94525 7.94525 0 0 0 63 38.10059 V 13 a 5 5 0 0 0 -10 0 V 28.15039 A 5.25316 5.25316 0 0 0 47.293 29.293 L 33.0498 43.53516 a 7.04559 7.04559 0 0 0 -1.04992 1.35559 a 7.04177 7.04177 0 0 0 -1.05017 -1.35559 L 16.707 29.293 A 5.25316 5.25316 0 0 0 11 28.15039 V 13 A 5 5 0 0 0 1 13 V 38.10059 a 7.94525 7.94525 0 0 0 2.34326 5.65625 l 8.77832 8.77832 A 2.98161 2.98161 0 0 1 13 54.65723 V 57 H 10 a 0.99974 0.99974 0 0 0 -1 1 v 5 a 0.99974 0.99974 0 0 0 1 1 Z M 13.53564 51.12109 L 4.75732 42.34277 A 5.95886 5.95886 0 0 1 3 38.10059 V 13 a 3 3 0 0 1 6 0 V 29.61035 A 5.251 5.251 0 0 0 9.293 36.707 l 12 12 A 0.99989 0.99989 0 1 0 22.707 47.293 l -12 -12 a 3.24765 3.24765 0 0 1 0 -4.58594 a 3.32148 3.32148 0 0 1 4.58594 0 L 29.53516 44.94922 A 4.96977 4.96977 0 0 1 31 48.48535 V 57 H 15 V 54.65723 A 4.968 4.968 0 0 0 13.53564 51.12109 Z M 11 59 H 31 v 3 H 11 Z m 42 3 H 33 V 59 H 53 Z m 8 -23.89941 a 5.95886 5.95886 0 0 1 -1.75732 4.24218 l -8.77832 8.77832 A 4.968 4.968 0 0 0 49 54.65723 V 57 H 33 V 48.48535 a 4.9713 4.9713 0 0 1 1.46436 -3.53613 L 48.707 30.707 a 3.32148 3.32148 0 0 1 4.58594 0 a 3.24765 3.24765 0 0 1 0 4.58594 l -12 12 A 0.99989 0.99989 0 0 0 42.707 48.707 l 12 -12 A 5.251 5.251 0 0 0 55 29.61035 V 13 a 3 3 0 0 1 6 0 Z M 15.08691 18.96191 a 0.99955 0.99955 0 0 0 0.65284 0.5625 a 1.01185 1.01185 0 0 0 0.84814 -0.15429 L 18 18.34973 v 8.99011 a 1 1 0 0 0 2 0 V 16.90454 L 32 8.2334 l 12 8.67114 v 10.4353 a 1 1 0 0 0 2 0 V 18.34973 l 1.41211 1.02039 a 0.99994 0.99994 0 0 0 1.501 -0.40821 l 2.00244 -4.55957 a 0.99971 0.99971 0 0 0 -0.33008 -1.21289 L 47 10.6 V 1 a 0.99974 0.99974 0 0 0 -1 -1 H 41 a 0.99974 0.99974 0 0 0 -1 1 V 5.54443 L 32.58545 0.18945 a 1.00141 1.00141 0 0 0 -1.1709 0 l -18 13 a 0.99971 0.99971 0 0 0 -0.33008 1.21289 Z M 42 2 h 3 V 9.15552 L 42 6.98883 Z M 32 2.2334 L 48.75977 14.33789 l -1.18018 2.68652 L 32.58545 6.18945 a 0.99932 0.99932 0 0 0 -1.1709 0 l -14.99414 10.835 l -1.18018 -2.68652 Z m 5 32.10644 V 21 H 27 V 34.33984 a 1 1 0 0 1 -2 0 V 20 a 0.99974 0.99974 0 0 1 1 -1 H 38 a 0.99974 0.99974 0 0 1 1 1 V 34.33984 a 1 1 0 1 1 -2 0 Z" stroke-linecap="round" />
</g>
<g transform="matrix(1 0 0 1 -23.682769005437365 280.5292842983363)" style=""  ><path fill="#ffffff" opacity="1" d="M53.98 0.87C54.89-0.71 55.79-2.30 56.68-3.91C56.80-2.33 57.01-0.77 57.30 0.79C56.19 0.81 55.08 0.78 53.98 0.87ZM58.40 1.68C58.50 1.68 58.58 1.67 58.67 1.67C58.94 1.65 59.17 1.40 59.04 1.13C58.93 0.83 58.58 0.73 58.28 0.75C58.26 0.75 58.25 0.75 58.23 0.75C57.85-1.33 57.60-3.42 57.52-5.51C57.52-5.53 57.52-5.53 57.52-5.55C57.55-5.91 57.25-6.21 56.96-6.12C56.77-6.12 56.60-5.99 56.58-5.69C55.36-3.41 54.08-1.19 52.79 1.06C52.52 1.14 52.48 1.33 52.52 1.52C52.02 2.43 51.51 3.33 51.00 4.23C50.65 4.85 51.38 5.47 51.76 4.77C52.30 3.84 52.83 2.89 53.38 1.94C54.71 1.68 56.11 1.75 57.49 1.73C57.66 2.65 57.88 3.60 58.12 4.52C58.31 5.26 59.20 4.99 58.99 4.27C58.79 3.41 58.58 2.55 58.40 1.68Z"/><path fill="#ffffff" opacity="1" d="M66.12 0.29C66.03 1.29 65.58 2.41 64.81 3.14C63.86 4.08 62.61 4.09 61.42 3.62C61.69 2.35 61.91 1.08 62.18-0.19C62.94-0.98 64.27-2.28 65.39-1.88C66.11-1.63 66.19-0.50 66.12 0.29ZM66.39-2.58C65.51-3.61 64.09-3.03 63.16-2.39C62.94-2.25 62.73-2.09 62.51-1.90C62.56-2.03 62.57-2.12 62.61-2.23C62.67-2.55 62.57-2.88 62.30-3.06C62.10-3.22 61.77-3.12 61.70-2.85C60.92 0.68 60.37 4.28 59.44 7.77C59.26 8.34 60.12 9.12 60.32 8.37C60.64 7.21 60.91 6.03 61.16 4.82C62.49 5.34 63.92 5.22 65.06 4.30C66.11 3.44 66.73 2.09 66.98 0.78C67.17-0.30 67.19-1.71 66.39-2.58Z"/><path fill="#ffffff" opacity="1" d="M74.49-2.12C74.90-2.57 73.78-3.06 73.40-2.63C72.56-1.73 71.66-0.27 70.43 0.37C70.43 0.37 70.43 0.37 70.42 0.37C70.29 0.27 70.18 0.30 70.10 0.37C70.48-1.68 70.86-3.69 71.29-5.69C71.43-6.32 70.23-6.16 70.10-5.61C69.34-2.20 68.79 1.24 68.06 4.65C67.93 5.26 69.17 5.12 69.28 4.57C69.48 3.57 69.67 2.57 69.85 1.59C69.96 1.57 70.07 1.54 70.15 1.52C70.15 1.52 70.17 1.52 70.17 1.52C71.42 2.21 72.07 4.00 72.54 5.25C72.84 5.99 73.59 5.23 73.37 4.65C72.88 3.44 72.29 2.00 71.34 1.05C72.59 0.30 73.51-1.03 74.49-2.12Z"/><path fill="#ffffff" opacity="1" d="M80.01-0.54C79.04 0.45 77.42 0.40 76.16 0.26C76.22 0.03 76.28-0.19 76.36-0.36C76.87-1.57 78.22-2.72 79.60-2.22C80.44-1.93 80.64-1.14 80.01-0.54ZM81.29-2.39C80.77-3.36 79.47-3.56 78.52-3.33C77.60-3.09 76.81-2.57 76.22-1.87C75.11-0.57 74.64 1.33 75.08 3.00C75.51 4.65 76.93 5.52 78.60 5.11C78.98 5.01 79.33 4.87 79.68 4.71C79.94 4.58 80.18 4.30 80.14 3.98C80.10 3.68 79.79 3.58 79.53 3.71C78.41 4.25 77.12 4.38 76.41 3.17C76.09 2.63 75.97 1.98 75.98 1.37C77.52 1.51 79.01 1.33 80.31 0.41C81.20-0.20 81.83-1.35 81.29-2.39Z"/><path fill="#ffffff" opacity="1" d=""/><path fill="#ffffff" opacity="1" d="M91.91-2.80C90.87-3.39 89.45-3.31 88.41-2.74C87.22-2.11 86.78-0.66 87.81 0.34C88.60 1.08 90.64 1.75 90.10 3.19C89.65 4.47 87.93 4.46 86.89 4.00C86.35 3.74 85.51 4.52 86.21 4.82C87.41 5.36 88.79 5.41 89.96 4.76C90.91 4.23 91.59 3.24 91.33 2.14C90.99 0.62 89.01 0.53 88.46-0.79C88.19-1.46 88.88-2.01 89.45-2.19C90.04-2.34 90.69-2.26 91.23-1.98C91.75-1.68 92.58-2.45 91.91-2.80Z"/><path fill="#ffffff" opacity="1" d="M96.29 2.97C95.95 3.52 95.46 4.19 94.75 4.17C94.15 4.17 93.67 3.68 93.45 3.14C92.94 1.81 93.61 0.18 94.37-0.93C95.16-2.12 96.51-2.80 97.86-2.20C97.81-1.74 97.74-1.27 97.65-0.79C97.60-0.60 97.57-0.41 97.54-0.22C97.27 0.91 96.86 1.98 96.29 2.97ZM100.23 3.52C100.14 3.25 99.77 3.24 99.55 3.38C99.30 3.54 98.73 4.00 98.38 3.81C98.11 3.66 98.16 3.05 98.16 2.81C98.16 2.08 98.25 1.37 98.39 0.64C98.57 0.03 98.70-0.57 98.79-1.15C98.84-1.28 98.85-1.42 98.90-1.57C98.92-1.66 98.92-1.74 98.90-1.80C98.95-2.03 98.96-2.28 98.98-2.53C98.98-2.57 98.98-2.61 98.98-2.63C99.03-2.79 98.98-2.93 98.82-3.03C95.10-4.94 91.58-0.09 92.26 3.31C92.64 5.19 94.75 5.71 96.14 4.57C96.51 4.30 96.79 3.96 97.06 3.58C97.08 3.66 97.08 3.73 97.11 3.81C97.35 5.39 98.90 4.90 99.88 4.25C100.11 4.11 100.36 3.81 100.23 3.52Z"/><path fill="#ffffff" opacity="1" d="M106.37 0.29C106.27 1.29 105.83 2.41 105.05 3.14C104.10 4.08 102.85 4.09 101.66 3.62C101.93 2.35 102.15 1.08 102.42-0.19C103.18-0.98 104.51-2.28 105.64-1.88C106.35-1.63 106.43-0.50 106.37 0.29ZM106.64-2.58C105.75-3.61 104.34-3.03 103.40-2.39C103.18-2.25 102.98-2.09 102.75-1.90C102.80-2.03 102.82-2.12 102.85-2.23C102.91-2.55 102.82-2.88 102.55-3.06C102.34-3.22 102.01-3.12 101.94-2.85C101.17 0.68 100.61 4.28 99.68 7.77C99.50 8.34 100.36 9.12 100.57 8.37C100.88 7.21 101.15 6.03 101.41 4.82C102.74 5.34 104.16 5.22 105.30 4.30C106.35 3.44 106.97 2.09 107.22 0.78C107.41-0.30 107.43-1.71 106.64-2.58Z"/><path fill="#ffffff" opacity="1" d="M115.07-2.19C114.67-3.37 113.29-3.34 112.34-2.93C111.68-2.64 111.04-2.22 110.46-1.77C110.49-1.99 110.52-2.22 110.55-2.47C110.61-3.22 109.71-3.37 109.63-2.61C109.57-2.04 109.51-1.46 109.43-0.89C109.33-0.81 109.25-0.74 109.19-0.68C108.87-0.41 109.03-0.19 109.30-0.08C109.06 1.40 108.76 2.87 108.33 4.31C108.27 4.55 108.25 4.93 108.54 5.09C108.79 5.25 109.11 5.01 109.17 4.76C109.65 3.12 110.01 1.44 110.25-0.27C111.03-0.93 111.80-1.58 112.68-2.04C112.99-2.20 113.36-2.39 113.69-2.19C113.97-2.01 114.01-1.49 114.02-1.20C114.21 0.75 113.29 2.74 112.83 4.61C112.69 5.25 113.91 5.26 114.05 4.68C114.32 3.60 114.67 2.52 114.94 1.44C115.23 0.27 115.46-1.04 115.07-2.19Z"/><path fill="#ffffff" opacity="1" d="M120.03 3.77C119.62 4.11 118.95 4.47 118.43 4.17C117.91 3.87 117.65 3.24 117.53 2.70C117.19 1.37 117.56-0.09 118.59-1.17C118.98-1.58 120.28-2.58 120.95-2.15C121.47-1.82 121.65-1.06 121.71-0.49C121.93 1.18 121.35 2.73 120.03 3.77ZM121.12-3.09C120.09-3.37 119.09-2.99 118.25-2.42C115.54-0.79 115.24 5.63 119.47 5.17C120.46 4.99 121.39 4.20 122.00 3.46C122.52 2.79 122.79 1.92 122.91 1.10C123.12-0.41 122.84-2.60 121.12-3.09Z"/><path fill="#ffffff" opacity="1" d=""/><path fill="#ffffff" opacity="1" d="M135.13-2.12C135.55-2.57 134.42-3.06 134.04-2.63C133.20-1.73 132.30-0.27 131.08 0.37C131.08 0.37 131.08 0.37 131.06 0.37C130.93 0.27 130.82 0.30 130.74 0.37C131.12-1.68 131.51-3.69 131.93-5.69C132.08-6.32 130.87-6.16 130.74-5.61C129.98-2.20 129.43 1.24 128.70 4.65C128.57 5.26 129.81 5.12 129.92 4.57C130.13 3.57 130.32 2.57 130.49 1.59C130.60 1.57 130.71 1.54 130.79 1.52C130.79 1.52 130.81 1.52 130.81 1.52C132.06 2.21 132.71 4.00 133.19 5.25C133.49 5.99 134.23 5.23 134.01 4.65C133.52 3.44 132.93 2.00 131.98 1.05C133.23 0.30 134.15-1.03 135.13-2.12Z"/><path fill="#ffffff" opacity="1" d="M140.65-0.54C139.68 0.45 138.07 0.40 136.80 0.26C136.86 0.03 136.93-0.19 137.00-0.36C137.51-1.57 138.86-2.72 140.24-2.22C141.08-1.93 141.28-1.14 140.65-0.54ZM141.93-2.39C141.41-3.36 140.11-3.56 139.16-3.33C138.24-3.09 137.45-2.57 136.86-1.87C135.75-0.57 135.28 1.33 135.72 3.00C136.15 4.65 137.58 5.52 139.24 5.11C139.62 5.01 139.97 4.87 140.32 4.71C140.59 4.58 140.82 4.30 140.78 3.98C140.75 3.68 140.43 3.58 140.17 3.71C139.05 4.25 137.77 4.38 137.05 3.17C136.74 2.63 136.61 1.98 136.62 1.37C138.16 1.51 139.65 1.33 140.95 0.41C141.84-0.20 142.47-1.35 141.93-2.39Z"/><path fill="#ffffff" opacity="1" d=""/><path fill="#ffffff" opacity="1" d="M150.32 3.57C149.84 3.84 148.99 4.08 148.65 3.71C148.18 3.19 148.27 2.08 148.40 1.37C148.59 0.34 149.05-0.73 149.86-1.42C150.72-2.14 151.76-2.12 152.73-1.74C152.47-0.73 152.33 0.70 152.09 2.11C151.57 2.67 150.97 3.19 150.32 3.57ZM153.36-2.74C152.03-3.41 150.53-3.42 149.32-2.41C148.26-1.49 147.67-0.03 147.47 1.33C147.29 2.46 147.29 3.90 148.18 4.77C148.75 5.34 149.76 5.12 150.43 4.80C150.91 4.58 151.35 4.30 151.75 3.96C151.16 6.31 150.10 8.07 147.47 7.04C147.21 6.93 146.86 6.87 146.66 7.13C146.48 7.37 146.67 7.71 146.93 7.78C148.18 8.31 149.51 8.53 150.76 7.86C151.81 7.31 152.35 6.10 152.70 5.04C153.12 3.74 153.30 2.38 153.49 1.05C153.63-0.01 153.73-1.15 154.14-2.14C154.31-2.52 153.79-2.80 153.36-2.74Z"/><path fill="#ffffff" opacity="1" d="M161.70-2.55C161.49-3.34 160.70-3.53 159.99-3.48C158.97-3.47 158.01-2.96 157.18-2.36C157.42-3.53 157.71-4.69 157.99-5.86C158.15-6.54 156.96-6.40 156.85-5.83C155.96-2.39 155.31 1.11 154.52 4.58C154.38 5.26 155.55 5.12 155.69 4.57C156.09 2.78 156.47 0.98 156.85-0.82C157.74-1.57 158.78-2.26 159.97-2.30C160.49-2.33 160.81-2.20 160.84-1.73C160.91-1.00 160.65-0.16 160.49 0.57C160.18 1.94 159.84 3.31 159.58 4.71C159.53 4.96 159.70 5.28 159.99 5.28C160.30 5.26 160.48 4.93 160.53 4.66C160.83 3.14 161.21 1.63 161.54 0.11C161.73-0.74 161.95-1.68 161.70-2.55Z"/><path fill="#ffffff" opacity="1" d="M166.58 2.97C166.25 3.52 165.76 4.19 165.04 4.17C164.44 4.17 163.97 3.68 163.74 3.14C163.24 1.81 163.90 0.18 164.66-0.93C165.46-2.12 166.80-2.80 168.15-2.20C168.10-1.74 168.04-1.27 167.94-0.79C167.90-0.60 167.86-0.41 167.83-0.22C167.56 0.91 167.15 1.98 166.58 2.97ZM170.53 3.52C170.43 3.25 170.07 3.24 169.85 3.38C169.59 3.54 169.02 4.00 168.67 3.81C168.40 3.66 168.45 3.05 168.45 2.81C168.45 2.08 168.55 1.37 168.69 0.64C168.86 0.03 168.99-0.57 169.09-1.15C169.13-1.28 169.15-1.42 169.20-1.57C169.21-1.66 169.21-1.74 169.20-1.80C169.24-2.03 169.26-2.28 169.28-2.53C169.28-2.57 169.28-2.61 169.28-2.63C169.32-2.79 169.28-2.93 169.12-3.03C165.39-4.94 161.87-0.09 162.56 3.31C162.94 5.19 165.04 5.71 166.44 4.57C166.80 4.30 167.09 3.96 167.36 3.58C167.37 3.66 167.37 3.73 167.41 3.81C167.64 5.39 169.20 4.90 170.18 4.25C170.40 4.11 170.65 3.81 170.53 3.52Z"/><path fill="#ffffff" opacity="1" d="M176.28-2.96C175.06-3.34 174.11-2.79 173.24-2.09C173.27-2.25 173.29-2.44 173.33-2.61C173.51-3.36 172.59-3.45 172.41-2.74C172.32-2.17 172.19-1.58 172.08-1.03C172.02-0.90 172.00-0.82 172.05-0.71C171.70 1.05 171.40 2.84 170.94 4.61C170.88 4.88 170.88 5.25 171.16 5.39C171.42 5.52 171.73 5.30 171.80 5.04C172.26 3.19 172.59 1.32 172.94-0.55C172.98-0.57 173.02-0.62 173.06-0.65C173.81-1.31 174.60-2.38 175.71-2.03C176.28-1.84 177.01-2.71 176.28-2.96Z"/><path fill="#ffffff" opacity="1" d=""/><path fill="#ffffff" opacity="1" d="M187.80-2.12C188.22-2.57 187.09-3.06 186.71-2.63C185.87-1.73 184.97-0.27 183.75 0.37C183.75 0.37 183.75 0.37 183.73 0.37C183.60 0.27 183.49 0.30 183.41 0.37C183.79-1.68 184.17-3.69 184.60-5.69C184.75-6.32 183.54-6.16 183.41-5.61C182.65-2.20 182.10 1.24 181.37 4.65C181.24 5.26 182.48 5.12 182.59 4.57C182.80 3.57 182.99 2.57 183.16 1.59C183.27 1.57 183.38 1.54 183.46 1.52C183.46 1.52 183.48 1.52 183.48 1.52C184.73 2.21 185.38 4.00 185.85 5.25C186.16 5.99 186.90 5.23 186.68 4.65C186.19 3.44 185.60 2.00 184.65 1.05C185.90 0.30 186.82-1.03 187.80-2.12Z"/><path fill="#ffffff" opacity="1" d="M192.02 2.97C191.69 3.52 191.20 4.19 190.48 4.17C189.88 4.17 189.41 3.68 189.18 3.14C188.68 1.81 189.34 0.18 190.10-0.93C190.89-2.12 192.24-2.80 193.59-2.20C193.54-1.74 193.48-1.27 193.38-0.79C193.34-0.60 193.30-0.41 193.27-0.22C193.00 0.91 192.59 1.98 192.02 2.97ZM195.97 3.52C195.87 3.25 195.51 3.24 195.29 3.38C195.03 3.54 194.46 4.00 194.11 3.81C193.84 3.66 193.89 3.05 193.89 2.81C193.89 2.08 193.99 1.37 194.13 0.64C194.30 0.03 194.43-0.57 194.52-1.15C194.57-1.28 194.59-1.42 194.64-1.57C194.65-1.66 194.65-1.74 194.64-1.80C194.68-2.03 194.70-2.28 194.71-2.53C194.71-2.57 194.71-2.61 194.71-2.63C194.76-2.79 194.71-2.93 194.56-3.03C190.83-4.94 187.31-0.09 187.99 3.31C188.37 5.19 190.48 5.71 191.88 4.57C192.24 4.30 192.53 3.96 192.80 3.58C192.81 3.66 192.81 3.73 192.84 3.81C193.08 5.39 194.64 4.90 195.62 4.25C195.84 4.11 196.09 3.81 195.97 3.52Z"/><path fill="#ffffff" opacity="1" d=""/><path fill="#ffffff" opacity="1" d="M207.09-0.14C206.92 1.27 206.48 2.92 205.13 3.65C204.22 4.12 203.18 4.06 202.23 3.81C202.50 2.33 202.85 0.86 203.18-0.62C203.89-1.20 204.70-1.73 205.56-2.03C205.94-2.19 206.46-2.28 206.81-2.07C207.33-1.74 207.13-0.62 207.09-0.14ZM205.86-3.36C205.06-3.22 204.29-2.82 203.57-2.34C203.83-3.45 204.07-4.55 204.27-5.66C204.37-6.27 203.50-6.86 203.35-6.07C203.07-4.48 202.70-2.93 202.35-1.36C202.21-1.22 202.18-1.00 202.21-0.79C201.88 0.65 201.56 2.06 201.29 3.52C200.71 3.33 200.60 4.52 201.13 4.73C202.61 5.26 204.34 5.52 205.71 4.65C207.43 3.58 207.90 1.38 208.04-0.47C208.16-1.93 207.65-3.69 205.86-3.36Z"/><path fill="#ffffff" opacity="1" d="M215.89-2.55C215.68-3.34 214.89-3.53 214.18-3.48C213.16-3.47 212.20-2.96 211.37-2.36C211.61-3.53 211.90-4.69 212.18-5.86C212.34-6.54 211.15-6.40 211.04-5.83C210.15-2.39 209.50 1.11 208.71 4.58C208.57 5.26 209.74 5.12 209.88 4.57C210.28 2.78 210.66 0.98 211.04-0.82C211.93-1.57 212.97-2.26 214.16-2.30C214.69-2.33 215.00-2.20 215.03-1.73C215.10-1.00 214.84-0.16 214.69 0.57C214.37 1.94 214.04 3.31 213.77 4.71C213.72 4.96 213.89 5.28 214.18 5.28C214.50 5.26 214.67 4.93 214.72 4.66C215.02 3.14 215.40 1.63 215.73 0.11C215.92-0.74 216.14-1.68 215.89-2.55Z"/><path fill="#ffffff" opacity="1" d="M220.77 2.97C220.44 3.52 219.95 4.19 219.23 4.17C218.63 4.17 218.16 3.68 217.94 3.14C217.43 1.81 218.09 0.18 218.85-0.93C219.65-2.12 220.99-2.80 222.34-2.20C222.29-1.74 222.23-1.27 222.14-0.79C222.09-0.60 222.06-0.41 222.02-0.22C221.75 0.91 221.34 1.98 220.77 2.97ZM224.72 3.52C224.62 3.25 224.26 3.24 224.04 3.38C223.78 3.54 223.21 4.00 222.86 3.81C222.59 3.66 222.64 3.05 222.64 2.81C222.64 2.08 222.74 1.37 222.88 0.64C223.05 0.03 223.18-0.57 223.28-1.15C223.32-1.28 223.34-1.42 223.39-1.57C223.40-1.66 223.40-1.74 223.39-1.80C223.44-2.03 223.45-2.28 223.47-2.53C223.47-2.57 223.47-2.61 223.47-2.63C223.51-2.79 223.47-2.93 223.31-3.03C219.58-4.94 216.06-0.09 216.75 3.31C217.13 5.19 219.23 5.71 220.63 4.57C220.99 4.30 221.28 3.96 221.55 3.58C221.56 3.66 221.56 3.73 221.60 3.81C221.83 5.39 223.39 4.90 224.37 4.25C224.59 4.11 224.85 3.81 224.72 3.52Z"/><path fill="#ffffff" opacity="1" d="M230.47-2.96C229.25-3.34 228.30-2.79 227.43-2.09C227.46-2.25 227.48-2.44 227.52-2.61C227.70-3.36 226.78-3.45 226.61-2.74C226.51-2.17 226.38-1.58 226.27-1.03C226.21-0.90 226.19-0.82 226.24-0.71C225.89 1.05 225.59 2.84 225.13 4.61C225.07 4.88 225.07 5.25 225.35 5.39C225.61 5.52 225.92 5.30 225.99 5.04C226.45 3.19 226.78 1.32 227.13-0.55C227.18-0.57 227.21-0.62 227.25-0.65C228.00-1.31 228.79-2.38 229.90-2.03C230.47-1.84 231.20-2.71 230.47-2.96Z"/><path fill="#ffffff" opacity="1" d="M234.58 3.77C234.17 4.11 233.50 4.47 232.98 4.17C232.45 3.87 232.20 3.24 232.07 2.70C231.74 1.37 232.10-0.09 233.14-1.17C233.53-1.58 234.83-2.58 235.50-2.15C236.02-1.82 236.19-1.06 236.26-0.49C236.48 1.18 235.89 2.73 234.58 3.77ZM235.67-3.09C234.64-3.37 233.64-2.99 232.80-2.42C230.09-0.79 229.79 5.63 234.02 5.17C235.01 4.99 235.94 4.20 236.54 3.46C237.07 2.79 237.34 1.92 237.46 1.10C237.67-0.41 237.38-2.60 235.67-3.09Z"/><path fill="#ffffff" opacity="1" d="M243.50-2.80C242.46-3.39 241.04-3.31 240.00-2.74C238.81-2.11 238.37-0.66 239.40 0.34C240.19 1.08 242.23 1.75 241.69 3.19C241.23 4.47 239.52 4.46 238.48 4.00C237.94 3.74 237.10 4.52 237.80 4.82C239.00 5.36 240.38 5.41 241.55 4.76C242.50 4.23 243.18 3.24 242.91 2.14C242.58 0.62 240.60 0.53 240.05-0.79C239.78-1.46 240.47-2.01 241.04-2.19C241.63-2.34 242.28-2.26 242.82-1.98C243.34-1.68 244.17-2.45 243.50-2.80Z"/><path fill="#ffffff" opacity="1" d="M249.18-0.54C248.21 0.45 246.59 0.40 245.32 0.26C245.39 0.03 245.45-0.19 245.53-0.36C246.04-1.57 247.38-2.72 248.76-2.22C249.60-1.93 249.81-1.14 249.18-0.54ZM250.46-2.39C249.94-3.36 248.64-3.56 247.69-3.33C246.77-3.09 245.97-2.57 245.39-1.87C244.28-0.57 243.80 1.33 244.25 3.00C244.67 4.65 246.10 5.52 247.76 5.11C248.15 5.01 248.49 4.87 248.84 4.71C249.11 4.58 249.35 4.30 249.30 3.98C249.27 3.68 248.95 3.58 248.70 3.71C247.57 4.25 246.29 4.38 245.58 3.17C245.26 2.63 245.13 1.98 245.15 1.37C246.69 1.51 248.18 1.33 249.48 0.41C250.36-0.20 251.00-1.35 250.46-2.39Z"/><path fill="#ffffff" opacity="1" d="M262.38-1.63C262.25-2.57 261.65-3.23 260.65-3.18C259.62-3.15 258.62-2.50 257.77-1.79C257.58-2.61 257.08-3.23 256.15-3.25C255.53-3.28 254.91-2.96 254.41-2.68C254.14-2.50 253.88-2.34 253.65-2.15C253.65-2.17 253.65-2.19 253.65-2.22C253.72-2.50 253.66-2.83 253.39-3.04C253.19-3.18 252.85-3.12 252.76-2.85C252.63-2.28 252.52-1.71 252.39-1.12C252.23-0.98 252.08-0.84 251.93-0.70C251.57-0.38 251.82-0.05 252.17 0.05C251.90 1.48 251.66 2.92 251.33 4.35C251.17 4.96 252.08 5.49 252.27 4.71C252.68 2.98 252.93 1.24 253.26-0.49C253.80-0.98 254.37-1.44 254.98-1.84C255.31-2.07 255.78-2.30 256.12-2.34C256.10-2.31 256.29-2.30 256.17-2.34C256.31-2.30 256.17-2.36 256.29-2.28C256.29-2.28 256.39-2.12 256.43-2.03C256.59-1.68 256.62-1.23 256.62-0.84C256.62-0.82 256.62-0.82 256.62-0.79C256.59-0.77 256.59-0.77 256.59-0.77C256.32-0.55 256.39-0.31 256.58-0.17C256.48 1.44 255.96 3.03 255.59 4.58C255.45 5.23 256.66 5.38 256.78 4.82C257.18 3.09 257.78 1.30 257.85-0.49C258.67-1.23 259.79-2.23 260.75-2.28C260.81-2.28 260.81-2.28 260.87-2.23C260.92-2.19 260.98-2.11 261.02-2.01C261.17-1.69 261.19-1.31 261.19-0.98C261.19 0.86 260.54 2.78 259.94 4.50C259.73 5.11 260.94 5.25 261.13 4.69C261.48 3.70 261.79 2.70 262.03 1.65C262.27 0.59 262.52-0.55 262.38-1.63Z"/><path fill="#ffffff" opacity="1" d="M267.18 2.97C266.85 3.52 266.36 4.19 265.64 4.17C265.04 4.17 264.57 3.68 264.34 3.14C263.84 1.81 264.50 0.18 265.26-0.93C266.06-2.12 267.40-2.80 268.75-2.20C268.70-1.74 268.64-1.27 268.54-0.79C268.50-0.60 268.46-0.41 268.43-0.22C268.16 0.91 267.75 1.98 267.18 2.97ZM271.13 3.52C271.03 3.25 270.67 3.24 270.45 3.38C270.19 3.54 269.62 4.00 269.27 3.81C269.00 3.66 269.05 3.05 269.05 2.81C269.05 2.08 269.15 1.37 269.29 0.64C269.46 0.03 269.59-0.57 269.69-1.15C269.73-1.28 269.75-1.42 269.80-1.57C269.81-1.66 269.81-1.74 269.80-1.80C269.84-2.03 269.86-2.28 269.88-2.53C269.88-2.57 269.88-2.61 269.88-2.63C269.92-2.79 269.88-2.93 269.72-3.03C265.99-4.94 262.47-0.09 263.16 3.31C263.54 5.19 265.64 5.71 267.04 4.57C267.40 4.30 267.69 3.96 267.96 3.58C267.97 3.66 267.97 3.73 268.01 3.81C268.24 5.39 269.80 4.90 270.78 4.25C271.00 4.11 271.25 3.81 271.13 3.52Z"/><path fill="#ffffff" opacity="1" d="M278.28-2.19C277.88-3.37 276.50-3.34 275.55-2.93C274.88-2.64 274.25-2.22 273.66-1.77C273.70-1.99 273.73-2.22 273.76-2.47C273.82-3.22 272.92-3.37 272.84-2.61C272.78-2.04 272.71-1.46 272.63-0.89C272.54-0.81 272.46-0.74 272.40-0.68C272.08-0.41 272.24-0.19 272.51-0.08C272.27 1.40 271.97 2.87 271.54 4.31C271.48 4.55 271.46 4.93 271.75 5.09C272.00 5.25 272.32 5.01 272.38 4.76C272.86 3.12 273.22 1.44 273.46-0.27C274.23-0.93 275.01-1.58 275.88-2.04C276.20-2.20 276.56-2.39 276.90-2.19C277.18-2.01 277.21-1.49 277.23-1.20C277.42 0.75 276.50 2.74 276.04 4.61C275.90 5.25 277.12 5.26 277.26 4.68C277.53 3.60 277.88 2.52 278.15 1.44C278.43 0.27 278.67-1.04 278.28-2.19Z"/><path fill="#ffffff" opacity="1" d="M282.24 4.01C281.87 4.17 281.51 4.20 281.24 4.06C280.45 3.63 280.27 2.46 280.29 1.60C280.34 0.53 280.67-0.63 281.41-1.41C282.27-2.28 283.49-2.30 284.63-1.95C284.31-0.41 284.08 1.14 283.86 2.71C283.40 3.20 282.86 3.74 282.24 4.01ZM285.50-6.07C285.28-5.05 285.04-4.06 284.84-3.03C283.57-3.34 282.24-3.22 281.14-2.39C280.05-1.55 279.42-0.24 279.21 1.11C279.04 2.19 279.13 3.52 279.83 4.41C280.67 5.45 281.98 5.25 283.00 4.65C283.25 4.50 283.49 4.33 283.70 4.17C283.70 4.27 283.68 4.38 283.68 4.47C283.62 5.07 284.81 5.38 284.87 4.77C285.22 1.24 285.88-2.28 286.69-5.75C286.85-6.35 285.66-6.67 285.50-6.07Z"/><path fill="#ffffff" opacity="1" d=""/><path fill="#ffffff" opacity="1" d="M296.49-2.80C295.44-3.39 294.03-3.31 292.98-2.74C291.80-2.11 291.35-0.66 292.38 0.34C293.18 1.08 295.22 1.75 294.68 3.19C294.22 4.47 292.51 4.46 291.46 4.00C290.92 3.74 290.08 4.52 290.78 4.82C291.99 5.36 293.37 5.41 294.54 4.76C295.49 4.23 296.17 3.24 295.90 2.14C295.57 0.62 293.59 0.53 293.03-0.79C292.76-1.46 293.46-2.01 294.03-2.19C294.62-2.34 295.27-2.26 295.81-1.98C296.33-1.68 297.15-2.45 296.49-2.80Z"/><path fill="#ffffff" opacity="1" d="M300.86 2.97C300.53 3.52 300.04 4.19 299.32 4.17C298.72 4.17 298.25 3.68 298.03 3.14C297.52 1.81 298.18 0.18 298.94-0.93C299.74-2.12 301.08-2.80 302.43-2.20C302.38-1.74 302.32-1.27 302.23-0.79C302.18-0.60 302.15-0.41 302.11-0.22C301.84 0.91 301.43 1.98 300.86 2.97ZM304.81 3.52C304.71 3.25 304.35 3.24 304.13 3.38C303.87 3.54 303.30 4.00 302.95 3.81C302.69 3.66 302.73 3.05 302.73 2.81C302.73 2.08 302.83 1.37 302.97 0.64C303.14 0.03 303.27-0.57 303.37-1.15C303.41-1.28 303.43-1.42 303.48-1.57C303.49-1.66 303.49-1.74 303.48-1.80C303.53-2.03 303.54-2.28 303.56-2.53C303.56-2.57 303.56-2.61 303.56-2.63C303.60-2.79 303.56-2.93 303.40-3.03C299.67-4.94 296.15-0.09 296.84 3.31C297.22 5.19 299.32 5.71 300.72 4.57C301.08 4.30 301.37 3.96 301.64 3.58C301.65 3.66 301.65 3.73 301.69 3.81C301.92 5.39 303.48 4.90 304.46 4.25C304.68 4.11 304.94 3.81 304.81 3.52Z"/><path fill="#ffffff" opacity="1" d="M309.22-2.96C308.71-2.91 308.23-2.90 307.74-2.90C307.85-3.42 307.98-3.94 308.09-4.48C308.23-5.18 307.04-5.02 306.93-4.47C306.84-3.94 306.71-3.42 306.58-2.90C306.19-2.90 305.76-2.90 305.35-2.88C305.09-2.88 304.81-2.63 304.87-2.36C304.95-2.04 305.33-1.96 305.60-1.96C305.86-1.98 306.11-1.98 306.38-1.98C305.98-0.41 305.59 1.19 305.46 2.82C305.40 3.55 305.33 4.55 305.92 5.11C306.65 5.79 307.79 5.19 308.49 4.77C308.71 4.63 308.83 4.27 308.63 4.06C308.39 3.84 308.04 3.96 307.80 4.11C307.57 4.25 307.27 4.42 307.00 4.42C306.92 4.44 306.81 4.31 306.73 4.12C306.44 3.46 306.62 2.52 306.73 1.84C306.92 0.56 307.20-0.71 307.52-1.98C308.17-1.98 308.82-1.98 309.45-2.04C310.25-2.14 309.90-3.03 309.22-2.96Z"/><path fill="#ffffff" opacity="1" d="M316.79-2.55C316.59-3.34 315.79-3.53 315.08-3.48C314.07-3.47 313.10-2.96 312.27-2.36C312.51-3.53 312.80-4.69 313.08-5.86C313.24-6.54 312.05-6.40 311.94-5.83C311.05-2.39 310.40 1.11 309.61 4.58C309.47 5.26 310.64 5.12 310.78 4.57C311.18 2.78 311.56 0.98 311.94-0.82C312.83-1.57 313.88-2.26 315.06-2.30C315.59-2.33 315.90-2.20 315.94-1.73C316.00-1.00 315.75-0.16 315.59 0.57C315.27 1.94 314.94 3.31 314.67 4.71C314.62 4.96 314.79 5.28 315.08 5.28C315.40 5.26 315.57 4.93 315.62 4.66C315.92 3.14 316.30 1.63 316.63 0.11C316.82-0.74 317.05-1.68 316.79-2.55Z"/><path fill="#ffffff" opacity="1" d="M319.12-3.01C318.60-0.49 318.11 2.05 317.57 4.57C317.41 5.17 318.60 5.52 318.73 4.93C319.30 2.40 319.77-0.14 320.31-2.66C320.44-3.26 319.25-3.61 319.12-3.01ZM320.96-6.29C320.80-6.51 320.29-6.51 320.09-6.46C319.95-6.42 319.79-6.35 319.66-6.27C319.55-6.20 319.45-6.07 319.39-5.94C319.23-5.59 319.42-5.09 319.72-4.90C320.10-4.67 320.58-4.61 320.98-4.82C321.15-4.93 321.28-5.16 321.28-5.36C321.29-5.72 321.17-6.00 320.96-6.29Z"/></g></svg>